<?xml version="1.0" encoding="UTF-8" standalone="no"?>
<!-- Created with Inkscape (http://www.inkscape.org/) -->

<svg
   width="373.1554"
   height="263.62723"
   viewBox="0 0 98.730698 69.751369"
   version="1.1"
   id="svg267"
   sodipodi:docname="Marca-personal-logo-v2.svg"
   inkscape:version="1.2.1 (9c6d41e, 2022-07-14)"
   xmlns:inkscape="http://www.inkscape.org/namespaces/inkscape"
   xmlns:sodipodi="http://sodipodi.sourceforge.net/DTD/sodipodi-0.dtd"
   xmlns="http://www.w3.org/2000/svg"
   xmlns:svg="http://www.w3.org/2000/svg">
  <sodipodi:namedview
     id="namedview269"
     pagecolor="#ffffff"
     bordercolor="#ffffff"
     borderopacity="1"
     inkscape:showpageshadow="false"
     inkscape:pageopacity="0"
     inkscape:pagecheckerboard="0"
     inkscape:deskcolor="#ffffff"
     inkscape:document-units="mm"
     showgrid="true"
     showborder="false"
     borderlayer="false"
     inkscape:zoom="1.0729879"
     inkscape:cx="464.12453"
     inkscape:cy="477.63819"
     inkscape:window-width="1920"
     inkscape:window-height="965"
     inkscape:window-x="0"
     inkscape:window-y="77"
     inkscape:window-maximized="0"
     inkscape:current-layer="layer2">
    <inkscape:grid
       type="xygrid"
       id="grid419" />
  </sodipodi:namedview>
  <defs
     id="defs264">
    <linearGradient
       id="linearGradient4514"
       inkscape:swatch="solid">
      <stop
         style="stop-color:#000000;stop-opacity:1;"
         offset="0"
         id="stop4512" />
    </linearGradient>
    <rect
       x="21.53153"
       y="-9.5695686"
       width="925.85583"
       height="616.04102"
       id="rect423" />
  </defs>
  <g
     inkscape:label="Textos"
     inkscape:groupmode="layer"
     id="layer1"
     style="display:none"
     sodipodi:insensitive="true"
     transform="translate(-14.826223,-24.468407)">
    <text
       xml:space="preserve"
       transform="scale(0.26458333)"
       id="text421"
       style="font-size:500px;line-height:1.25;font-family:'Speed Demon';-inkscape-font-specification:'Speed Demon';white-space:pre;shape-inside:url(#rect423);display:inline;stroke-width:1.00157;stroke-dasharray:none"
       sodipodi:insensitive="true"><tspan
         x="21.53125"
         y="447.66653"
         id="tspan773"><tspan
           style="fill:#800000;fill-opacity:0.536184"
           id="tspan771">c p</tspan></tspan></text>
  </g>
  <g
     inkscape:groupmode="layer"
     id="layer3"
     inkscape:label="bosquejo3"
     style="display:none"
     sodipodi:insensitive="true"
     transform="translate(-14.826223,-24.468407)">
    <g
       id="g907">
      <g
         id="g989"
         transform="matrix(0.79814253,0,0,0.77898129,43.934365,4.2749413)">
        <path
           style="display:inline;fill:none;stroke:#000000;stroke-width:0.264583px;stroke-linecap:butt;stroke-linejoin:miter;stroke-opacity:1"
           d="m -15.543038,26.308566 75.40473,0.214829 -3.484676,15.573638 H -1.3690332 l -13.9006028,61.088457 57.730236,-0.11532 -3.86691,16.04424 -74.791869,0.11531 z"
           id="path846"
           sodipodi:nodetypes="ccccccccc" />
        <path
           id="path897"
           style="fill:none;stroke:#000000;stroke-width:0.264583px;stroke-linecap:butt;stroke-linejoin:miter;stroke-opacity:1"
           d="m 107.40812,26.274365 c -18.951187,3.3e-5 -47.552422,0.24226 -47.552422,0.24226 l -1.699108,7.563469 -1.864333,8.032691 c 0,0 39.958382,0.09465 49.200343,-0.05204 9.24199,-0.146692 9.41043,2.849312 9.77396,6.060867 0.36353,3.211554 -0.15292,8.663117 -1.7818,12.889652 -1.62889,4.226535 -1.71185,4.499481 -12.4964,5.019849 -10.781853,0.52024 -50.223347,2.54e-4 -50.242651,0 l -12.173934,53.083067 16.301833,0.21497 8.593222,-37.165172 c 0,0 35.553086,0.304795 44.93968,-0.214974 9.3866,-0.519768 11.81635,-5.041518 16.54215,-12.459704 4.72579,-7.418187 6.65954,-31.365011 6.65954,-31.365011 0,0 1.47654,-11.734246 -9.54691,-11.815816 -2.75586,-0.02039 -7.19646,-0.03412 -13.51356,-0.03411 z"
           sodipodi:nodetypes="scccssssccccsscsss" />
      </g>
    </g>
  </g>
  <g
     inkscape:groupmode="layer"
     id="layer5"
     inkscape:label="logo3"
     style="display:inline"
     sodipodi:insensitive="true"
     transform="translate(-14.826223,-24.468407)">
    <g
       id="g491"
       transform="matrix(0.73566833,0,0,1.0005506,3.8884544,-0.03352822)"
       style="fill:none;stroke:#0095f0;stroke-opacity:1"
       inkscape:label="logov1"
       inkscape:export-filename="./g491.png"
       inkscape:export-xdpi="27.3899"
       inkscape:export-ydpi="27.3899">
      <g
         id="g1684"
         inkscape:label="P"
         style="display:inline">
        <path
           style="display:none;fill:none;stroke:#fa3a00;stroke-width:0.264583px;stroke-linecap:butt;stroke-linejoin:miter;stroke-opacity:1"
           d="m 31.568794,24.686498 c 0,0 72.456446,-0.148223 107.270636,-0.270218 3.39199,-0.01189 10.15775,4.36174 10.17725,7.750975 0.0428,7.438262 0.16709,15.621648 -0.0653,24.710966 -0.0853,3.333641 -11.05596,9.34557 -17.43964,9.380395 -11.81719,0.06447 -35.516341,-0.149615 -35.516341,-0.149615 l -6.013381,28.047617 -75.170089,-0.08003 z"
           id="path329"
           sodipodi:nodetypes="csssscccc"
           sodipodi:insensitive="true"
           inkscape:label="border-ext" />
        <path
           style="display:none;fill:none;stroke:#fa3a00;stroke-width:0.264583px;stroke-linecap:butt;stroke-linejoin:miter;stroke-opacity:1"
           d="m 88.553734,35.514012 c 0,0 27.122476,-0.01837 41.299166,0.06023 2.22862,0.01235 5.91559,3.502951 6.14726,5.719534 0.47262,4.52208 0.63913,5.853605 -1.34654,10.024215 -0.98116,2.060783 -3.95496,4.34006 -6.58306,4.338839 -14.09331,-0.0065 -43.687624,-0.149616 -43.687624,-0.149616 L 77.828176,83.434996 32.13848,83.474806 43.636028,35.49839"
           id="path333"
           sodipodi:nodetypes="csssscccc"
           inkscape:label="border-int"
           sodipodi:insensitive="true" />
        <path
           style="display:none;fill:none;stroke:#0095f0;stroke-width:0.264583px;stroke-linecap:butt;stroke-linejoin:miter;stroke-opacity:1"
           d="M 77.886279,83.48396 75.426034,94.185628"
           id="path335"
           sodipodi:nodetypes="cc" />
        <path
           style="display:inline;fill:#fa3a00;fill-opacity:1;stroke:#fa3a00;stroke-width:1.04695;stroke-opacity:1"
           d="m 225.18242,354.56868 c 0.36367,-1.56207 6.34664,-37.30323 6.49879,-38.82257 0.0889,-0.88783 4.18904,-24.93199 9.11142,-53.43147 l 8.94976,-51.81723 34.69682,0.16142 c 19.08325,0.0888 46.98418,0.16143 62.00207,0.16143 h 27.30526 l 2.86261,-1.41858 c 2.38662,-1.1827 3.37567,-1.93486 5.94817,-4.52354 4.14629,-4.17238 5.91797,-7.2095 8.084,-13.85811 0.90651,-2.78252 2.03604,-6.87515 2.51007,-9.09474 0.78898,-3.69428 0.86183,-4.65 0.86129,-11.29971 -6.5e-4,-8.65194 -0.56384,-15.69147 -1.47802,-18.4762 -2.34295,-7.13699 -9.20005,-14.49015 -13.77055,-17.58398 -19.76146,-0.9211 -39.81018,-0.23335 -59.4639,-0.52067 l -58.2702,0.0679 4.9989,-20.55655 c 2.63416,-10.83222 3.90522,-19.95193 4.01451,-20.061215 0.35963,-0.359639 131.18002,-0.695946 132.75703,-0.342529 8.60999,1.92954 20.64789,12.983624 24.39106,22.397674 l 1.03884,2.61267 0.22352,10.00831 c 0.28269,12.65705 0.28595,61.12977 0.005,76.67659 -0.21087,11.67572 -0.2204,11.80207 -1.03706,13.75297 -4.91973,11.75254 -26.96224,27.69038 -42.37516,30.63936 -2.14488,0.41038 -7.23079,0.47833 -33.5736,0.44857 -17.07519,-0.0193 -39.83536,-0.13235 -50.57815,-0.25124 -10.74279,-0.11888 -19.58021,-0.18841 -19.63871,-0.1545 -0.0585,0.0339 -3.86523,23.86424 -8.45941,52.9563 -4.59417,29.09205 -8.35996,52.93097 -8.36842,52.97536 -0.008,0.0444 -8.88034,0.0807 -19.7153,0.0807 H 225.0133 Z"
           id="path1691"
           transform="matrix(0.3596503,0,0,0.26443773,-5.285608,0.03350977)"
           sodipodi:nodetypes="ssscsscsssssscccsssscscsssssscscs"
           inkscape:label="background" />
        <path
           style="display:inline;fill:#000000;fill-opacity:0.201893;stroke:none;stroke-width:0.308391px;stroke-linecap:butt;stroke-linejoin:miter;stroke-opacity:0.2"
           d="m 90.159,30.426441 -1.509463,5.122402 c 0,0 26.670613,0.03233 39.478303,3e-6 3.9254,-0.0099 6.55659,1.750447 7.66343,4.866282 1.04767,2.949259 0.9797,7.512043 -1.04501,11.183916 -1.15497,2.094564 -3.69897,3.858013 -6.50231,3.927176 -14.94156,0.368632 -43.890583,-0.08537 -43.890583,-0.08537 l -8.940675,38.674151 7.198985,-0.08537 7.779548,-33.210256 c 0,0 25.082215,0.15957 37.620505,0 6.1749,-0.07859 14.32837,-3.757478 14.51408,-8.28122 0.25223,-6.144153 0.22622,-8.345524 0,-15.367213 -0.0934,-2.902024 -3.7155,-6.811281 -7.66344,-6.829872 C 122.5383,30.28304 90.159,30.42644 90.159,30.426441 Z"
           id="path16942"
           sodipodi:nodetypes="ccssssccccssssc"
           inkscape:label="opacity" />
      </g>
      <g
         id="g1689"
         inkscape:label="C">
        <path
           style="display:inline;fill:#0095fa;fill-opacity:1;stroke:#0095f0;stroke-width:1.20262;stroke-dasharray:none;stroke-opacity:1"
           d="m 56.733327,354.63093 c -0.0099,-0.60167 46.074693,-260.38873 46.224303,-260.574695 0.13771,-0.171171 166.04167,-0.743607 166.23352,-0.573574 0.0744,0.06591 -1.8448,9.056339 -4.26484,19.978709 l -4.40006,20.58554 -48.05781,0.13077 c -26.4318,7.4e-4 -54.1934,-0.12122 -62.14358,-0.12135 l -14.81987,-2.2e-4 -15.87201,89.90694 c -8.75267,49.57944 -15.95861,90.61069 -16.06446,91.17161 l -0.19245,1.01985 h 63.65521 63.6552 l -0.19598,0.83442 c -0.1078,0.45894 -1.53052,8.76147 -3.16161,18.45008 -1.63109,9.68861 -3.06131,18.07459 -3.17825,18.63551 l -0.21263,1.01985 h -83.59853 c -66.627524,0 -83.600079,-0.0941 -83.606153,-0.46356 z"
           id="path15767"
           transform="matrix(0.3596503,0,0,0.26443773,-5.285608,0.03350977)"
           inkscape:label="background"
           sodipodi:nodetypes="csssccscsscccssscscc" />
        <path
           style="display:inline;fill:#000000;fill-opacity:0.201893;stroke:none;stroke-width:0.308391px;stroke-linecap:butt;stroke-linejoin:miter;stroke-opacity:0.201893"
           d="M 31.622788,24.715997 91.82282,24.569784 90.046585,30.439746 37.772159,30.458302 23.477443,88.627099 H 76.720919 L 75.447705,94.201432 14.867798,94.042107 Z"
           id="path15617"
           sodipodi:nodetypes="ccccccccc"
           inkscape:label="opacity" />
      </g>
    </g>
  </g>
</svg>
